{
  "asset": {
    "version": "2.0"
  },
  "scene": 0,
  "scenes": [
    {
      "nodes": [
        0,
        1
      ]
    }
  ],
  "nodes": [
    {
      "mesh": 0
    },
    {
      "mesh": 1
    }
  ],
  "meshes": [
    {
      "primitives": [
        {
          "attributes": {
            "POSITION": 0
          },
          "indices": 1,
          "material": 0,
          "mode": 4
        }
      ]
    },
    {
      "primitives": [
        {
          "attributes": {
            "POSITION": 0
          },
          "indices": 2,
          "material": 1,
          "mode": 4
        }
      ]
    }
  ],
  "materials": [
    {
      "pbrMetallicRoughness": {
        "baseColorFactor": [
          0,
          0.447,
          0.741,
          1
        ],
        "metallicFactor": 0.3,
        "roughnessFactor": 0.6
      }
    },
    {
      "pbrMetallicRoughness": {
        "baseColorFactor": [
          0.85,
          0.325,
          0.098,
          1
        ],
        "metallicFactor": 0.3,
        "roughnessFactor": 0.6
      }
    }
  ],
  "accessors": [
    {
      "type": "VEC3",
      "componentType": 5126,
      "byteOffset": 0,
      "count": 4372,
      "min": [
        0,
        0,
        0
      ],
      "max": [
        1,
        0.5009999871254,
        0
      ],
      "bufferView": 0
    },
    {
      "type": "SCALAR",
      "componentType": 5123,
      "byteOffset": 0,
      "count": 24000,
      "min": [
        0
      ],
      "max": [
        4140
      ],
      "bufferView": 1
    },
    {
      "type": "SCALAR",
      "componentType": 5123,
      "byteOffset": 0,
      "count": 1200,
      "min": [
        4141
      ],
      "max": [
        4371
      ],
      "bufferView": 2
    }
  ],
  "bufferViews": [
    {
      "buffer": 0,
      "byteOffset": 0,
      "byteLength": 52464
    },
    {
      "buffer": 0,
      "byteOffset": 52464,
      "byteLength": 48000
    },
    {
      "buffer": 0,
      "byteOffset": 100464,
      "byteLength": 2400
    }
  ],
  "buffers": [
    {
      "uri": "data:application/octet-stream;base64,",
      "byteLength": 102864
    }
  ]
}